<svg width="60" height="60" viewBox="0 0 60 60" fill="none" xmlns="http://www.w3.org/2000/svg">
<path fill-rule="evenodd" clip-rule="evenodd" d="M27.6188 19.8758C32.4305 14.1889 39.89 11.5405 47.1528 12.8475C48.4595 20.1105 45.8115 27.5702 40.1248 32.3822L31.5863 39.6075L29.6098 40.7755L19.2237 30.389L20.3825 28.428L27.6188 19.8758ZM16.6357 25.086L23.7873 16.6337C23.8426 16.5684 23.8981 16.5034 23.9539 16.4387C21.0213 17.0916 17.1415 18.7689 12.6079 22.7058L16.6357 25.086ZM30.0278 11.2846C35.833 7.73782 42.9178 6.56702 49.7338 8.27105C50.7163 8.5167 51.4833 9.2839 51.729 10.2665C53.4333 17.0838 52.2618 24.1701 48.7138 29.9765C48.9165 31.1415 49.0393 32.6727 48.8715 34.5107C48.4853 38.7495 46.5753 44.4145 40.94 50.8452C38.6525 53.4557 34.6693 52.8192 33.0295 50.0442L30.9625 46.546C29.8735 47.0212 28.569 46.812 27.681 45.9445L27.9673 46.2307L26.1928 48.0052C24.2327 49.9655 21.0548 49.9655 19.0948 48.0052L11.9968 40.9072C10.0368 38.947 10.0368 35.769 11.9968 33.809L13.7713 32.0342L14.0571 32.3202C13.1893 31.4317 12.9802 30.1265 13.4561 29.037L9.95565 26.9685C7.18078 25.3287 6.54423 21.3454 9.15458 19.0578C15.5851 13.4223 21.2499 11.5122 25.4885 11.1258C27.329 10.958 28.8618 11.0812 30.0278 11.2846ZM17.3201 35.5835L15.5458 37.358L22.6437 44.4562L24.4181 42.6817L17.3201 35.5835ZM34.9138 43.3667L37.292 47.392C41.2265 42.8607 42.904 38.9827 43.5578 36.0507C43.4943 36.1052 43.4308 36.1597 43.3668 36.214L34.9138 43.3667Z" fill="url(#paint0_linear)"/>
<defs>
<linearGradient id="paint0_linear" x1="20.5051" y1="13.6437" x2="37.7412" y2="49.4689" gradientUnits="userSpaceOnUse">
<stop stop-color="#F5693F"/>
<stop offset="1" stop-color="#F53F71"/>
</linearGradient>
</defs>
</svg>
