<svg width="60" height="60" viewBox="0 0 60 60" fill="none" xmlns="http://www.w3.org/2000/svg">
<path fill-rule="evenodd" clip-rule="evenodd" d="M49.2425 18.3756C52.5443 19.1461 55 22.0574 55 25.5312V45.1447C55 49.207 51.6423 52.5 47.5 52.5H12.5C8.35788 52.5 5 49.207 5 45.145V30.4345V25.5312C5 21.4691 8.35788 18.1761 12.5 18.1761H13.691L36.3018 8.15455C40.0763 6.48158 44.519 8.12615 46.225 11.8278L47.3833 14.3412L48.992 17.832L49.2425 18.3756ZM10 32.8862V45.145C10 46.499 11.1193 47.5965 12.5 47.5965H47.5C48.8807 47.5965 50 46.499 50 45.1447V32.8862H10ZM50 27.983H10V25.5312C10 24.1771 11.1193 23.0795 12.5 23.0795H47.5C48.8807 23.0795 50 24.1771 50 25.5312V27.983ZM43.6637 18.1761L42.827 16.3606L41.6687 13.8472C41.1 12.6133 39.6193 12.0651 38.361 12.6228L25.8317 18.1761H43.6637ZM12.5 40.2415C12.5 38.8875 13.6193 37.7897 15 37.7897H25C26.3808 37.7897 27.5 38.8875 27.5 40.2415C27.5 41.5955 26.3808 42.6932 25 42.6932H15C13.6193 42.6932 12.5 41.5955 12.5 40.2415Z" fill="url(#paint0_linear)"/>
<defs>
<linearGradient id="paint0_linear" x1="19.4501" y1="13.6437" x2="35.5371" y2="50.7957" gradientUnits="userSpaceOnUse">
<stop stop-color="#F5693F"/>
<stop offset="1" stop-color="#F53F71"/>
</linearGradient>
</defs>
</svg>
