<svg width="60" height="60" viewBox="0 0 60 60" fill="none" xmlns="http://www.w3.org/2000/svg">
<path fill-rule="evenodd" clip-rule="evenodd" d="M22.5 17.5C24.3474 17.5 26.0777 18.0009 27.5627 18.8744C28.122 13.8814 32.3577 10 37.5 10C43.0228 10 47.5 14.4771 47.5 20C47.5 22.7977 46.3513 25.327 44.4995 27.142C47.8185 29.3892 50 33.1897 50 37.5V40.3572V47.5C50 48.8807 48.8807 50 47.5 50C46.1193 50 45 48.8807 45 47.5V40.3572V37.5C45 33.3577 41.6423 30 37.5 30C33.3577 30 30 33.3577 30 37.5V40.3572V47.5C30 48.8807 28.8808 50 27.5 50C26.1192 50 25 48.8807 25 47.5V40.3572V37.5H22.5H18.9286C16.7589 37.5 15 39.259 15 41.4285V47.5C15 48.8807 13.8807 50 12.5 50C11.1193 50 10 48.8807 10 47.5V41.4285C10 38.0712 11.8531 35.1465 14.5923 33.6217C13.2807 31.9302 12.5 29.8062 12.5 27.5C12.5 21.9771 16.9771 17.5 22.5 17.5ZM22.5 32.5C25.2615 32.5 27.5 30.2615 27.5 27.5C27.5 24.7386 25.2615 22.5 22.5 22.5C19.7386 22.5 17.5 24.7386 17.5 27.5C17.5 30.2615 19.7386 32.5 22.5 32.5ZM37.5 25C40.2615 25 42.5 22.7614 42.5 20C42.5 17.2386 40.2615 15 37.5 15C34.7385 15 32.5 17.2386 32.5 20C32.5 22.7614 34.7385 25 37.5 25Z" fill="url(#paint0_linear)"/>
<defs>
<linearGradient id="paint0_linear" x1="21.5601" y1="15.4611" x2="36.8811" y2="47.3057" gradientUnits="userSpaceOnUse">
<stop stop-color="#F5693F"/>
<stop offset="1" stop-color="#F53F71"/>
</linearGradient>
</defs>
</svg>
